<svg xmlns="http://www.w3.org/2000/svg" xmlns:xlink="http://www.w3.org/1999/xlink" width="55" zoomAndPan="magnify" viewBox="0 0 41.25 41.250001" height="55" preserveAspectRatio="xMidYMid meet" version="1.0"><defs><clipPath id="21b93aeb9c"><path d="M 0 0.328125 L 40.511719 0.328125 L 40.511719 40.105469 L 0 40.105469 Z M 0 0.328125 " clip-rule="nonzero"/></clipPath></defs><g clip-path="url(#21b93aeb9c)"><path fill="#ffffff" d="M 14.816406 8.554688 C 14.820312 8.554688 14.851562 8.566406 14.898438 8.578125 C 14.96875 8.597656 15.035156 8.621094 15.09375 8.640625 C 17.792969 9.605469 19.707031 12.488281 17.488281 15 C 17.484375 15.003906 17.605469 14.972656 17.773438 14.910156 C 19.605469 14.242188 19.699219 11.992188 18.730469 10.539062 C 17.9375 9.34375 16.484375 8.566406 15.003906 8.546875 C 14.917969 8.546875 14.863281 8.546875 14.835938 8.550781 C 14.8125 8.550781 14.800781 8.554688 14.816406 8.554688 Z M 23.601562 19.671875 C 23.601562 19.675781 23.671875 20.128906 23.75 20.886719 C 24.09375 24.257812 24.09375 28.414062 23.015625 31.65625 C 22.890625 32.039062 22.753906 32.382812 22.609375 32.695312 C 22.179688 33.609375 21.09375 35.414062 22.863281 35.605469 C 23.105469 35.628906 23.355469 35.636719 23.621094 35.628906 C 23.5625 35.597656 23.464844 35.546875 23.382812 35.496094 C 22.789062 35.121094 22.699219 34.804688 22.914062 34.277344 C 22.9375 34.214844 22.96875 34.148438 23.003906 34.078125 C 23.21875 33.652344 23.417969 33.195312 23.597656 32.714844 C 24.535156 30.222656 24.964844 27.25 24.847656 24.613281 C 24.773438 22.984375 24.472656 21.398438 23.839844 20.109375 C 23.714844 19.855469 23.605469 19.667969 23.601562 19.671875 Z M 16.867188 19.058594 C 15.644531 22.089844 15.777344 26.054688 16.261719 28.835938 C 16.429688 29.785156 16.601562 30.722656 16.738281 31.609375 C 16.738281 31.609375 16.507812 31.261719 16.292969 30.792969 C 14.527344 26.996094 14.390625 21.511719 16.222656 17.957031 C 18.628906 13.332031 22.757812 13.332031 25.164062 17.957031 C 26.992188 21.511719 26.855469 26.996094 25.09375 30.792969 C 24.878906 31.261719 24.648438 31.609375 24.648438 31.609375 C 24.785156 30.722656 24.957031 29.785156 25.121094 28.835938 C 25.609375 26.054688 25.742188 22.089844 24.519531 19.058594 C 22.6875 14.5 18.699219 14.5 16.867188 19.058594 Z M 2.292969 29.816406 C 1.855469 28.980469 1.480469 28.113281 1.167969 27.230469 C 0.765625 26.09375 0.460938 24.933594 0.273438 23.78125 C 0.128906 22.90625 0.0390625 22.019531 0.0117188 21.128906 C -0.015625 20.242188 0.0117188 19.351562 0.105469 18.460938 C 0.117188 18.300781 0.136719 18.136719 0.15625 17.972656 C 0.179688 17.804688 0.203125 17.640625 0.226562 17.480469 C 0.25 17.316406 0.277344 17.15625 0.304688 16.992188 C 0.335938 16.828125 0.363281 16.667969 0.398438 16.507812 C 0.429688 16.347656 0.460938 16.1875 0.5 16.027344 C 0.535156 15.867188 0.574219 15.707031 0.617188 15.542969 C 0.65625 15.382812 0.699219 15.222656 0.742188 15.066406 C 0.785156 14.90625 0.832031 14.75 0.878906 14.59375 C 0.929688 14.433594 0.980469 14.277344 1.03125 14.125 C 1.082031 13.972656 1.136719 13.816406 1.195312 13.660156 C 1.25 13.503906 1.308594 13.347656 1.367188 13.195312 C 1.425781 13.042969 1.488281 12.890625 1.550781 12.738281 C 1.617188 12.589844 1.679688 12.4375 1.75 12.285156 C 1.816406 12.136719 1.882812 11.988281 1.953125 11.84375 L 1.957031 11.835938 C 2.027344 11.691406 2.097656 11.542969 2.175781 11.394531 C 2.25 11.246094 2.328125 11.101562 2.40625 10.953125 C 2.484375 10.8125 2.5625 10.667969 2.644531 10.523438 C 2.730469 10.375 2.8125 10.234375 2.898438 10.09375 C 2.984375 9.953125 3.070312 9.8125 3.160156 9.671875 C 3.25 9.535156 3.339844 9.394531 3.433594 9.257812 C 3.523438 9.125 3.617188 8.988281 3.714844 8.851562 C 3.808594 8.71875 3.910156 8.582031 4.007812 8.449219 C 4.109375 8.316406 4.210938 8.183594 4.3125 8.054688 C 4.414062 7.925781 4.515625 7.796875 4.621094 7.671875 C 4.726562 7.542969 4.835938 7.417969 4.945312 7.292969 C 5.050781 7.167969 5.164062 7.042969 5.277344 6.921875 C 5.390625 6.796875 5.503906 6.675781 5.617188 6.558594 C 5.730469 6.4375 5.847656 6.320312 5.964844 6.203125 C 6.082031 6.085938 6.203125 5.972656 6.320312 5.859375 C 6.441406 5.746094 6.5625 5.632812 6.6875 5.519531 C 6.8125 5.410156 6.9375 5.296875 7.0625 5.191406 C 7.1875 5.085938 7.316406 4.980469 7.445312 4.875 C 7.578125 4.765625 7.703125 4.664062 7.832031 4.566406 C 7.964844 4.464844 8.097656 4.363281 8.230469 4.265625 C 8.367188 4.167969 8.5 4.070312 8.636719 3.972656 C 8.769531 3.882812 8.90625 3.789062 9.046875 3.695312 C 9.183594 3.605469 9.324219 3.515625 9.464844 3.425781 C 9.605469 3.335938 9.746094 3.25 9.886719 3.167969 C 10.027344 3.085938 10.171875 3.003906 10.316406 2.921875 C 10.460938 2.839844 10.605469 2.761719 10.753906 2.679688 C 10.898438 2.605469 11.046875 2.527344 11.195312 2.453125 C 11.34375 2.378906 11.492188 2.308594 11.640625 2.238281 C 11.789062 2.167969 11.941406 2.101562 12.09375 2.035156 C 12.246094 1.964844 12.398438 1.902344 12.550781 1.839844 C 12.703125 1.777344 12.859375 1.714844 13.015625 1.65625 C 13.164062 1.597656 13.320312 1.542969 13.476562 1.484375 C 13.632812 1.433594 13.785156 1.378906 13.945312 1.328125 C 14.101562 1.277344 14.257812 1.226562 14.417969 1.179688 C 14.578125 1.132812 14.734375 1.085938 14.894531 1.042969 C 15.054688 1 15.214844 0.957031 15.375 0.917969 C 15.535156 0.878906 15.695312 0.84375 15.855469 0.804688 C 16.015625 0.773438 16.175781 0.738281 16.34375 0.707031 C 16.503906 0.671875 16.667969 0.644531 16.832031 0.617188 C 16.996094 0.589844 17.15625 0.5625 17.320312 0.539062 C 17.484375 0.515625 17.648438 0.496094 17.8125 0.476562 C 17.976562 0.457031 18.140625 0.4375 18.308594 0.421875 C 18.46875 0.40625 18.636719 0.394531 18.804688 0.378906 C 18.96875 0.367188 19.136719 0.359375 19.300781 0.351562 C 19.464844 0.34375 19.632812 0.335938 19.800781 0.335938 C 19.964844 0.332031 20.132812 0.328125 20.300781 0.328125 C 20.46875 0.328125 20.636719 0.332031 20.800781 0.335938 C 20.964844 0.339844 21.128906 0.347656 21.300781 0.355469 C 21.46875 0.363281 21.632812 0.375 21.796875 0.386719 C 21.964844 0.398438 22.128906 0.414062 22.292969 0.429688 C 22.453125 0.445312 22.621094 0.464844 22.785156 0.484375 C 22.953125 0.507812 23.117188 0.527344 23.277344 0.550781 C 23.441406 0.578125 23.605469 0.601562 23.769531 0.632812 C 23.933594 0.660156 24.09375 0.691406 24.257812 0.722656 C 24.417969 0.753906 24.578125 0.789062 24.738281 0.824219 C 24.898438 0.859375 25.0625 0.898438 25.222656 0.941406 C 25.386719 0.980469 25.546875 1.023438 25.703125 1.066406 C 25.867188 1.109375 26.023438 1.15625 26.179688 1.203125 C 26.335938 1.253906 26.492188 1.300781 26.648438 1.355469 C 26.804688 1.40625 26.960938 1.457031 27.117188 1.515625 C 27.273438 1.570312 27.429688 1.628906 27.582031 1.6875 C 27.738281 1.75 27.890625 1.808594 28.042969 1.871094 C 28.195312 1.933594 28.347656 2 28.5 2.066406 C 28.652344 2.136719 28.800781 2.203125 28.949219 2.273438 C 29.097656 2.34375 29.246094 2.417969 29.394531 2.492188 C 29.542969 2.566406 29.6875 2.644531 29.835938 2.722656 C 29.980469 2.800781 30.125 2.878906 30.269531 2.960938 C 30.417969 3.042969 30.5625 3.128906 30.699219 3.210938 C 30.84375 3.296875 30.984375 3.382812 31.125 3.472656 C 31.261719 3.5625 31.402344 3.652344 31.539062 3.742188 C 31.671875 3.832031 31.808594 3.925781 31.949219 4.023438 C 32.085938 4.121094 32.21875 4.21875 32.351562 4.316406 C 32.488281 4.417969 32.617188 4.515625 32.75 4.617188 C 32.878906 4.71875 33.007812 4.824219 33.136719 4.929688 C 33.265625 5.03125 33.390625 5.140625 33.515625 5.246094 C 33.640625 5.355469 33.765625 5.464844 33.890625 5.578125 C 34.011719 5.691406 34.136719 5.804688 34.253906 5.917969 C 34.375 6.03125 34.492188 6.148438 34.609375 6.265625 C 34.726562 6.382812 34.84375 6.5 34.957031 6.621094 C 35.070312 6.738281 35.179688 6.859375 35.296875 6.984375 C 35.410156 7.109375 35.519531 7.230469 35.625 7.355469 C 35.734375 7.480469 35.839844 7.609375 35.945312 7.738281 C 36.054688 7.867188 36.15625 7.996094 36.257812 8.125 C 36.355469 8.253906 36.457031 8.386719 36.558594 8.519531 C 36.65625 8.652344 36.753906 8.789062 36.847656 8.921875 C 36.941406 9.054688 37.035156 9.191406 37.128906 9.328125 C 37.222656 9.46875 37.3125 9.609375 37.402344 9.746094 C 37.488281 9.890625 37.578125 10.027344 37.660156 10.167969 C 37.742188 10.308594 37.824219 10.449219 37.910156 10.59375 C 37.992188 10.738281 38.070312 10.882812 38.148438 11.03125 C 38.226562 11.175781 38.304688 11.324219 38.378906 11.46875 C 38.453125 11.617188 38.523438 11.765625 38.59375 11.914062 C 38.664062 12.0625 38.734375 12.210938 38.800781 12.363281 C 38.867188 12.515625 38.933594 12.667969 38.996094 12.816406 C 39.058594 12.96875 39.117188 13.125 39.179688 13.277344 C 39.238281 13.429688 39.292969 13.585938 39.347656 13.738281 C 39.40625 13.890625 39.457031 14.046875 39.507812 14.207031 C 39.5625 14.363281 39.609375 14.519531 39.660156 14.675781 C 39.707031 14.835938 39.75 14.992188 39.796875 15.152344 C 39.839844 15.308594 39.882812 15.46875 39.921875 15.628906 C 39.960938 15.789062 39.996094 15.949219 40.03125 16.109375 C 40.070312 16.265625 40.101562 16.429688 40.132812 16.59375 C 40.164062 16.753906 40.195312 16.914062 40.222656 17.078125 C 40.25 17.242188 40.277344 17.402344 40.300781 17.566406 C 40.324219 17.726562 40.347656 17.890625 40.367188 18.054688 C 40.386719 18.21875 40.40625 18.382812 40.417969 18.546875 C 40.4375 18.710938 40.449219 18.875 40.460938 19.042969 C 40.472656 19.210938 40.480469 19.371094 40.492188 19.535156 C 40.496094 19.699219 40.503906 19.867188 40.507812 20.035156 C 40.511719 20.199219 40.511719 20.363281 40.511719 20.53125 C 40.511719 20.699219 40.511719 20.867188 40.503906 21.027344 C 40.5 21.191406 40.492188 21.355469 40.484375 21.523438 C 40.476562 21.691406 40.46875 21.855469 40.453125 22.019531 C 40.441406 22.183594 40.425781 22.347656 40.410156 22.511719 C 40.394531 22.675781 40.375 22.839844 40.355469 23.003906 C 40.335938 23.171875 40.3125 23.335938 40.289062 23.496094 C 40.265625 23.65625 40.238281 23.820312 40.207031 23.984375 C 40.179688 24.144531 40.148438 24.308594 40.117188 24.46875 C 40.085938 24.628906 40.050781 24.789062 40.015625 24.949219 C 39.976562 25.109375 39.941406 25.269531 39.898438 25.429688 C 39.859375 25.59375 39.816406 25.75 39.769531 25.910156 C 39.726562 26.070312 39.679688 26.226562 39.632812 26.378906 C 39.585938 26.539062 39.535156 26.695312 39.484375 26.847656 C 39.429688 27.003906 39.378906 27.160156 39.320312 27.316406 C 39.265625 27.472656 39.207031 27.625 39.148438 27.777344 C 39.085938 27.933594 39.023438 28.085938 38.960938 28.234375 C 38.898438 28.386719 38.832031 28.539062 38.765625 28.691406 C 38.695312 28.84375 38.628906 28.992188 38.558594 29.140625 C 38.484375 29.285156 38.414062 29.433594 38.339844 29.582031 C 38.265625 29.730469 38.1875 29.875 38.109375 30.019531 C 38.03125 30.164062 37.949219 30.308594 37.867188 30.453125 C 37.78125 30.601562 37.699219 30.742188 37.617188 30.882812 C 37.53125 31.023438 37.445312 31.164062 37.351562 31.300781 C 37.265625 31.441406 37.171875 31.578125 37.082031 31.714844 C 36.992188 31.851562 36.898438 31.984375 36.800781 32.125 C 36.703125 32.257812 36.605469 32.390625 36.507812 32.523438 C 36.40625 32.660156 36.304688 32.789062 36.203125 32.917969 C 36.101562 33.050781 35.996094 33.175781 35.890625 33.304688 C 35.785156 33.433594 35.679688 33.558594 35.570312 33.683594 C 35.460938 33.808594 35.351562 33.929688 35.238281 34.054688 C 34.707031 34.632812 34.148438 35.183594 33.5625 35.699219 C 32.976562 36.210938 32.359375 36.695312 31.707031 37.136719 C 31.144531 37.523438 30.589844 37.859375 30.019531 38.164062 C 29.449219 38.472656 28.863281 38.753906 28.238281 39.019531 C 27.945312 39.144531 27.652344 39.261719 27.359375 39.371094 C 27.0625 39.480469 26.765625 39.582031 26.464844 39.679688 C 26.359375 39.714844 26.25 39.746094 26.144531 39.78125 C 26.035156 39.8125 25.929688 39.84375 25.820312 39.875 L 25.003906 40.105469 L 25.796875 39.796875 C 26.382812 39.570312 26.957031 39.320312 27.519531 39.050781 C 28.082031 38.78125 28.632812 38.492188 29.164062 38.179688 C 30.582031 37.359375 31.90625 36.390625 33.105469 35.292969 C 34.273438 34.222656 35.324219 33.019531 36.226562 31.699219 C 36.675781 31.046875 37.085938 30.363281 37.457031 29.648438 C 37.824219 28.949219 38.152344 28.222656 38.441406 27.46875 C 38.546875 27.191406 38.644531 26.910156 38.738281 26.628906 C 38.832031 26.347656 38.917969 26.066406 38.996094 25.78125 C 39.078125 25.496094 39.148438 25.207031 39.21875 24.921875 C 39.285156 24.632812 39.34375 24.34375 39.398438 24.054688 C 39.453125 23.761719 39.5 23.472656 39.539062 23.179688 C 39.578125 22.890625 39.613281 22.597656 39.640625 22.300781 C 39.667969 22.007812 39.691406 21.710938 39.703125 21.417969 C 39.71875 21.121094 39.722656 20.824219 39.726562 20.527344 C 39.726562 20.371094 39.722656 20.210938 39.722656 20.050781 C 39.71875 19.890625 39.710938 19.734375 39.703125 19.574219 C 39.695312 19.414062 39.6875 19.253906 39.675781 19.097656 C 39.664062 18.941406 39.652344 18.78125 39.636719 18.625 C 39.621094 18.464844 39.605469 18.304688 39.585938 18.148438 C 39.566406 17.992188 39.546875 17.835938 39.523438 17.679688 C 39.5 17.519531 39.472656 17.367188 39.449219 17.210938 C 39.421875 17.054688 39.394531 16.898438 39.363281 16.746094 C 39.332031 16.589844 39.300781 16.4375 39.265625 16.28125 C 39.230469 16.125 39.195312 15.96875 39.15625 15.816406 C 39.117188 15.664062 39.078125 15.511719 39.035156 15.359375 C 38.996094 15.207031 38.949219 15.054688 38.90625 14.902344 C 38.859375 14.75 38.8125 14.601562 38.761719 14.453125 C 38.714844 14.300781 38.660156 14.152344 38.609375 14.003906 C 38.554688 13.851562 38.5 13.703125 38.441406 13.554688 C 38.386719 13.410156 38.328125 13.261719 38.265625 13.117188 C 38.207031 12.96875 38.144531 12.824219 38.082031 12.679688 C 38.015625 12.535156 37.949219 12.390625 37.882812 12.246094 C 37.8125 12.101562 37.742188 11.960938 37.671875 11.820312 C 37.601562 11.675781 37.527344 11.535156 37.453125 11.398438 C 37.378906 11.257812 37.304688 11.117188 37.222656 10.980469 C 37.148438 10.84375 37.066406 10.707031 36.984375 10.570312 C 36.902344 10.429688 36.816406 10.296875 36.734375 10.164062 C 36.648438 10.027344 36.5625 9.894531 36.472656 9.765625 C 36.386719 9.632812 36.296875 9.503906 36.203125 9.371094 C 36.113281 9.238281 36.019531 9.109375 35.921875 8.984375 C 35.828125 8.855469 35.734375 8.730469 35.636719 8.605469 C 35.535156 8.476562 35.433594 8.351562 35.335938 8.230469 C 35.238281 8.109375 35.132812 7.988281 35.027344 7.863281 C 34.921875 7.742188 34.816406 7.625 34.710938 7.507812 C 34.609375 7.394531 34.5 7.277344 34.386719 7.160156 C 34.277344 7.042969 34.164062 6.925781 34.054688 6.816406 C 33.941406 6.703125 33.824219 6.589844 33.707031 6.480469 C 33.59375 6.371094 33.476562 6.261719 33.359375 6.15625 C 33.246094 6.050781 33.125 5.949219 33.003906 5.839844 C 32.878906 5.734375 32.757812 5.632812 32.636719 5.53125 C 32.511719 5.429688 32.386719 5.332031 32.261719 5.234375 C 32.132812 5.132812 32.007812 5.039062 31.882812 4.945312 C 31.753906 4.847656 31.625 4.757812 31.496094 4.664062 C 31.367188 4.574219 31.238281 4.484375 31.101562 4.394531 C 30.96875 4.304688 30.835938 4.21875 30.699219 4.132812 C 30.566406 4.046875 30.433594 3.964844 30.296875 3.882812 C 30.15625 3.796875 30.019531 3.71875 29.882812 3.644531 C 29.746094 3.5625 29.605469 3.488281 29.464844 3.410156 C 29.328125 3.339844 29.1875 3.265625 29.042969 3.191406 C 28.898438 3.121094 28.757812 3.050781 28.613281 2.984375 C 28.464844 2.914062 28.320312 2.847656 28.175781 2.78125 C 28.035156 2.71875 27.890625 2.65625 27.742188 2.597656 C 27.59375 2.535156 27.445312 2.476562 27.296875 2.417969 C 27.148438 2.363281 27 2.304688 26.851562 2.25 C 26.703125 2.199219 26.554688 2.148438 26.402344 2.097656 C 26.253906 2.046875 26.101562 2 25.949219 1.953125 C 25.792969 1.90625 25.640625 1.863281 25.488281 1.820312 C 25.335938 1.777344 25.183594 1.738281 25.027344 1.699219 C 24.878906 1.660156 24.722656 1.625 24.566406 1.589844 C 24.414062 1.554688 24.257812 1.519531 24.101562 1.488281 C 23.945312 1.457031 23.789062 1.429688 23.628906 1.402344 C 23.476562 1.375 23.320312 1.351562 23.160156 1.324219 C 23 1.304688 22.84375 1.28125 22.6875 1.261719 C 22.53125 1.242188 22.371094 1.222656 22.210938 1.210938 C 22.054688 1.191406 21.894531 1.179688 21.734375 1.167969 C 21.574219 1.15625 21.414062 1.144531 21.257812 1.136719 C 21.101562 1.128906 20.941406 1.125 20.777344 1.121094 C 20.617188 1.113281 20.457031 1.113281 20.296875 1.113281 C 19.976562 1.109375 19.65625 1.121094 19.335938 1.132812 C 19.019531 1.148438 18.699219 1.171875 18.382812 1.203125 C 18.066406 1.230469 17.75 1.269531 17.433594 1.3125 C 17.121094 1.359375 16.804688 1.414062 16.496094 1.472656 C 16.183594 1.535156 15.871094 1.601562 15.566406 1.679688 C 15.253906 1.753906 14.949219 1.839844 14.644531 1.929688 C 14.339844 2.019531 14.039062 2.117188 13.738281 2.222656 C 13.441406 2.332031 13.144531 2.445312 12.847656 2.5625 C 12.554688 2.683594 12.261719 2.8125 11.976562 2.945312 C 11.6875 3.082031 11.402344 3.222656 11.121094 3.371094 C 10.84375 3.519531 10.566406 3.675781 10.289062 3.839844 C 10.015625 4.003906 9.746094 4.171875 9.480469 4.347656 C 9.214844 4.523438 8.953125 4.707031 8.699219 4.894531 C 8.4375 5.085938 8.1875 5.28125 7.941406 5.480469 C 7.695312 5.683594 7.453125 5.886719 7.214844 6.101562 C 6.980469 6.316406 6.746094 6.53125 6.519531 6.757812 C 6.40625 6.871094 6.292969 6.984375 6.183594 7.097656 C 6.074219 7.214844 5.964844 7.332031 5.855469 7.445312 C 5.75 7.5625 5.648438 7.679688 5.539062 7.800781 C 5.433594 7.925781 5.332031 8.046875 5.230469 8.167969 C 5.128906 8.289062 5.027344 8.414062 4.929688 8.539062 C 4.828125 8.667969 4.734375 8.792969 4.640625 8.917969 C 4.542969 9.042969 4.449219 9.171875 4.359375 9.300781 C 4.269531 9.429688 4.175781 9.558594 4.085938 9.695312 C 3.996094 9.828125 3.910156 9.960938 3.824219 10.09375 C 3.738281 10.226562 3.652344 10.363281 3.570312 10.5 C 3.488281 10.636719 3.40625 10.773438 3.328125 10.90625 C 3.253906 11.042969 3.175781 11.183594 3.097656 11.324219 C 3.023438 11.464844 2.949219 11.601562 2.878906 11.742188 C 2.808594 11.886719 2.738281 12.027344 2.667969 12.171875 C 2.597656 12.316406 2.53125 12.460938 2.464844 12.605469 C 2.402344 12.746094 2.339844 12.894531 2.277344 13.039062 C 2.21875 13.183594 2.160156 13.332031 2.097656 13.480469 C 2.042969 13.628906 1.988281 13.777344 1.933594 13.925781 C 1.878906 14.070312 1.828125 14.21875 1.777344 14.371094 C 1.730469 14.523438 1.679688 14.671875 1.632812 14.824219 C 1.585938 14.976562 1.542969 15.128906 1.5 15.28125 C 1.457031 15.433594 1.417969 15.585938 1.378906 15.738281 C 1.339844 15.890625 1.300781 16.042969 1.269531 16.195312 C 1.234375 16.351562 1.199219 16.503906 1.167969 16.664062 C 1.136719 16.816406 1.105469 16.972656 1.082031 17.128906 C 1.050781 17.285156 1.027344 17.4375 1.003906 17.597656 C 0.980469 17.757812 0.957031 17.914062 0.9375 18.066406 C 0.917969 18.222656 0.902344 18.382812 0.886719 18.539062 C 0.800781 19.382812 0.773438 20.222656 0.796875 21.054688 C 0.820312 21.894531 0.898438 22.726562 1.03125 23.546875 C 1.347656 25.496094 1.988281 27.527344 2.945312 29.394531 C 4.757812 32.941406 7.734375 35.925781 11.761719 36.710938 C 14.722656 37.289062 18.917969 36.960938 17.980469 33.324219 C 17.871094 32.890625 17.742188 32.480469 17.609375 32.074219 C 16.472656 28.570312 15.855469 23.546875 17.546875 20.109375 C 17.667969 19.855469 17.78125 19.667969 17.78125 19.671875 C 17.78125 19.675781 17.710938 20.128906 17.636719 20.886719 C 17.292969 24.257812 17.292969 28.414062 18.371094 31.65625 C 18.421875 31.8125 18.464844 31.949219 18.507812 32.070312 C 19.425781 34.808594 18.847656 36.917969 15.664062 37.554688 C 14.300781 37.828125 12.71875 37.6875 11.453125 37.421875 C 7.308594 36.554688 4.199219 33.46875 2.292969 29.816406 Z M 19.859375 7.933594 C 17.980469 7.90625 17.773438 7.507812 16.351562 7.109375 C 15.613281 6.90625 14.265625 6.785156 14.054688 7.800781 C 14.042969 7.863281 14.035156 7.925781 14.039062 7.960938 C 14.039062 7.976562 14.164062 7.859375 14.347656 7.78125 C 14.808594 7.578125 15.164062 7.597656 15.542969 7.730469 C 15.816406 7.828125 16.078125 7.953125 16.34375 8.082031 C 17.167969 8.484375 17.726562 8.734375 18.660156 8.832031 C 18.980469 8.867188 19.347656 8.882812 19.789062 8.890625 C 22.949219 8.933594 23.414062 12.113281 23.121094 14.589844 C 23.101562 14.769531 23.078125 14.871094 23.0625 14.957031 C 23.773438 14.550781 24.761719 7.828125 19.859375 7.933594 " fill-opacity="1" fill-rule="nonzero"/></g></svg>